# xmcd
#
# Track frame offsets:
#	150
#	12391
#	23192
#	35435
#	48228
#	58541
#	70106
#	79277
#	90223
#	102301
#	115848
#	130745
#	145060
#	156542
#	168681
#	179284
#	190175
#	201879
#	213242
#	224448
#	235592
#	246248
#	256984
#	269722
#	283162
#	294268
#	307183
#	315656
#	326372
#	340037
#
# Disc length: 4686 seconds
#
# Revision: 0
# Processed by: cddbd v1.4PL0 Copyright (c) Steve Scherf et al.
# Submitted via: EasyCDDAExtractor 4.6.0.1
#
DISCID=bc124c1e
DTITLE=Various Artist - A Million Dollars Worth Of Doo-Wop  Vol 7
DYEAR=1900
DGENRE=blues
TTITLE0=Hy-Tones - Chinese Boogie
TTITLE1=Kidds - You Broke My Heart
TTITLE2=Sof-Tones - Oh Why
TTITLE3=Invictors - Where All Lovers Meet
TTITLE4=Celebritys - This Is My Plea
TTITLE5=Knockouts - You Are Laughing
TTITLE6=New Invictors - Deeply In Love With You
TTITLE7=Sandy Powell and group - Bon Bon
TTITLE8=Shan-Tones - Come To Me
TTITLE9=Grandures (Cole and the) - Teenage Correl
TTITLE10=Vel-Tones - Playboy
TTITLE11=Shakers (Pepper and the) - Need Your Love
TTITLE12=Caprees - If I Should Lose You
TTITLE13=Dynamics - I Guess You Don't Love Me
TTITLE14=La Salles - Yum, Yum, Yum
TTITLE15=Vic Marcel and group - Come Back To These Arms
TTITLE16=Casinos - Please Let Her
TTITLE17=Franciscans - Mother Please Answer me
TTITLE18=Emeralds - I Need Your Love
TTITLE19=Personalities - Woe Woe Baby
TTITLE20=Debutones - A Place In My Heart
TTITLE21=Golden-Tones - I'm Wrong
TTITLE22=Bentleys - Why Didn't I Listen To Mother
TTITLE23=Gliders - School Days
TTITLE24=Lee Johnson and group - You Love  Billy
TTITLE25=Nickels - I Love Only You
TTITLE26=Splendors - An Island Called Romance
TTITLE27=Individuals - A Pillow Wet With Tears
TTITLE28=Four Buddies - I Want You To Be My Girl
TTITLE29=Perennials - I'm Yours 'Til The End
EXTD=
EXTT0=
EXTT1=
EXTT2=
EXTT3=
EXTT4=
EXTT5=
EXTT6=
EXTT7=
EXTT8=
EXTT9=
EXTT10=
EXTT11=
EXTT12=
EXTT13=
EXTT14=
EXTT15=
EXTT16=
EXTT17=
EXTT18=
EXTT19=
EXTT20=
EXTT21=
EXTT22=
EXTT23=
EXTT24=
EXTT25=
EXTT26=
EXTT27=
EXTT28=
EXTT29=
PLAYORDER=
